<?xml version="1.0" encoding="UTF-8"?>
<!DOCTYPE svg PUBLIC "-//W3C//DTD SVG 1.1//EN" "http://www.w3.org/Graphics/SVG/1.1/DTD/svg11.dtd">
<!-- Creator: CorelDRAW -->
<svg xmlns="http://www.w3.org/2000/svg" xml:space="preserve" width="24.7711mm" height="3.3129mm" version="1.1" style="shape-rendering:geometricPrecision; text-rendering:geometricPrecision; image-rendering:optimizeQuality; fill-rule:evenodd; clip-rule:evenodd"
viewBox="0 0 1215.1 162.51"
 xmlns:xlink="http://www.w3.org/1999/xlink"
 xmlns:xodm="http://www.corel.com/coreldraw/odm/2003">
 <defs>
  <style type="text/css">
   <![CDATA[
    .fil2 {fill:#00747D}
    .fil1 {fill:#00BBCA}
    .fil0 {fill:white}
    .fil3 {fill:white;fill-rule:nonzero}
   ]]>
  </style>
 </defs>
 <g id="Camada_x0020_1">
  <metadata id="CorelCorpID_0Corel-Layer"/>
  <g id="_2810178850480">
   <g>
    <path class="fil0" d="M121.56 55.72l-1.27 3.37c-2.5,0.06 -28.29,-9.37 -33.91,-11.18l16.11 0.56c4.18,-1.38 10.5,-5.02 11.55,-10.97 -13.45,-0.19 -27.01,-0.03 -40.47,-0.03 -20.62,-1.19 -31.24,-3.26 -30.31,10.94 2.83,5.83 9.73,6.67 17.08,9.05l40.06 12.79c3.25,1.06 6.93,2.21 10.25,3.33 11.63,3.92 43.88,13.43 49.12,16.29 10.33,5.65 19.46,18.9 14.11,35.56 -2.17,8.33 -10.44,15.47 -17.65,18.17 -8.15,3.05 -22.54,1.87 -32.27,1.87 -11.16,0 -62.52,0.58 -69.16,-0.22l3.77 -8.87c0.59,-2.53 1.65,-4.21 2.62,-6.32 0.96,-2.07 1.55,-3.6 2.74,-6.47 1.47,-3.51 4,-8.59 4.92,-12.17 1.06,-2.35 2.15,-5.18 3.87,-7.45 4.81,0.57 29.91,8.62 32.83,10.71 -10.25,-0.08 -23.54,-2.14 -27.31,10.4l64.98 0.23c3.7,-1.49 8.07,-3.82 5.91,-11.15 -1.32,-4.47 -5.89,-5.57 -10.12,-6.91l-74.49 -23.78c-16.32,-5.32 -35.39,-8.34 -43.54,-22 -10.81,-18.13 1.55,-39.83 16.35,-42.6 6.8,-3.12 85.05,-1.48 98.92,-1 -2.44,7.11 -12.64,29.1 -14.69,37.83zm-59.83 44.46l-25.14 61.86c25.58,0.92 45.66,0.04 71.41,0.1 31.8,0.08 72.03,6.32 83.05,-35.7 2.81,-10.72 0.34,-24.12 -4.64,-32.99 -9.9,-17.62 -32.94,-23.04 -55.32,-29.05l24.07 -63.92c-25.67,-0.7 -44.9,-0.13 -70.68,-0.06 -25.86,0.07 -51.36,-3.81 -68.05,11.04 -14.09,12.54 -22.99,36.08 -10.43,57.55 11.01,18.84 35.18,26.06 55.72,31.18z"/>
    <path class="fil1" d="M43.62 49.18c-0.23,-8 2.73,-11.75 8.03,-11.75l62.39 0.07c-1.05,5.95 -6.92,8.83 -11.55,10.97 10.76,-0.24 18.49,-8.14 20.22,-16.44 -4.29,-0.48 -67.01,-1.04 -72.19,0.2 -2.55,0.61 -5.53,2.05 -7.04,4.91 -1.61,3.06 -2.35,8.25 0.14,12.05zm99.45 76.14c8.78,-1.04 17.19,-7.78 12.34,-18.52 -3.1,-6.85 -13.38,-9.6 -21.06,-11.63 -20.55,-5.42 -52.83,-17.01 -74.78,-24.4 -8.1,-2.72 -17.79,-5.55 -24.4,-9.21 -12.8,-7.08 -14.29,-24.17 -7.04,-34.27 3.41,-4.74 5.04,-5.21 9.21,-8.41 -14.8,2.77 -27.16,24.47 -16.35,42.6 8.15,13.66 27.21,16.68 43.54,22l74.49 23.78c4.23,1.33 8.8,2.44 10.12,6.91 2.16,7.33 -2.75,9.64 -6.06,11.15zm-84.49 11.06l-3.77 8.87c6.65,0.8 58.01,0.22 69.16,0.22 9.72,0 24.11,1.18 32.27,-1.87 7.21,-2.7 15.48,-9.84 17.65,-18.17 -15.99,17.72 -28.14,13.35 -50.76,13.35 -8.79,0 -64.66,2.77 -64.55,-2.4z"/>
    <path class="fil2" d="M40.49 64.71c5.93,2.49 12.96,4.01 19.08,6.07 21.95,7.39 54.22,18.98 74.78,24.4 7.68,2.02 17.96,4.77 21.06,11.63 4.85,10.74 -3.16,17.02 -11.87,18.52l-65.29 -0.24c3.74,-12.42 17.84,-10.26 28.16,-10.18 -2.91,-2.09 -28.86,-10.36 -33.67,-10.94 -2.84,3.76 -15.39,34.56 -15.17,34.8 19.83,0.66 38.84,1.3 59.94,1.3 14.45,-0 36.36,0.84 48.02,-6.38 18.48,-11.57 10.02,-35.21 -5.74,-43.82 -5.24,-2.86 -37.5,-12.37 -49.12,-16.29 -3.32,-1.12 -7,-2.27 -10.25,-3.33l-40.06 -12.79c-6.14,-1.98 -14.77,-3.1 -17.54,-9.86 -2.27,-6.38 0.88,-13.73 7.72,-15.36 5.18,-1.23 67.89,-0.67 72.19,-0.2 -1.73,8.3 -9.95,16.15 -20.22,16.44l-16.11 -0.56 34.19 11.68c6.82,-13.27 12.25,-27.38 16.3,-42.32 -23.49,-2.59 -83.61,-7.91 -102.79,2.93 -14.5,8.2 -15.96,35.09 6.41,44.51z"/>
   </g>
   <g>
    <path class="fil3" d="M274.28 56.6c0,13.69 -5.98,22.6 -17.97,26.75 -4.18,1.48 -8.67,2.2 -13.48,2.2 -10.11,0 -19.47,-3.05 -28.1,-9.16l8.98 -16.92c6.31,5.74 12.47,8.61 18.52,8.61 2.71,0 5.04,-0.65 6.92,-1.92 2.2,-1.44 3.32,-3.48 3.32,-6.13 0,-2.41 -1.21,-4.41 -3.66,-6 -1.82,-1.19 -4.9,-2.43 -9.18,-3.66 -5.22,-1.54 -8.49,-2.61 -9.83,-3.19 -2.14,-0.91 -3.96,-1.98 -5.46,-3.2 -4.31,-3.56 -6.45,-8.93 -6.45,-16.11 0,-7.5 2.22,-13.71 6.69,-18.66 5.2,-5.8 12.15,-8.69 20.82,-8.69 8.72,0 17.25,2.18 25.62,6.57l-8.37 16.35c-4.59,-3.64 -9.2,-5.46 -13.87,-5.46 -2.25,0 -4.27,0.59 -6.05,1.74 -2,1.31 -3.01,3.05 -3.01,5.25 0,2.14 1.31,4 3.96,5.56 1.19,0.71 4.73,1.94 10.65,3.7 7.42,2.18 12.72,5.25 15.87,9.26 2.73,3.4 4.08,7.77 4.08,13.1z"/>
    <path id="_1" class="fil3" d="M358.15 49.1c0,4.85 -0.39,9.02 -1.17,12.45 -1.24,5.32 -4.14,10.19 -8.78,14.58 -6.55,6.21 -15.3,9.3 -26.26,9.3 -11.18,0 -19.9,-3.15 -26.16,-9.48 -3.32,-3.32 -5.58,-7.48 -6.81,-12.51 -0.87,-3.54 -1.3,-8.33 -1.3,-14.33l0 -46.64 20.98 0 0 43.71c0,3.52 0.06,6.13 0.18,7.87 0.39,5.48 2.89,9.3 7.52,11.48 1.9,0.91 3.98,1.35 6.29,1.35 5.14,0 9,-1.8 11.61,-5.38 1.94,-2.65 2.91,-7.77 2.91,-15.33l0 -43.71 20.99 0 0 46.64z"/>
    <path id="_2" class="fil3" d="M436.52 60.36c0,6.04 -1.72,10.98 -5.14,14.76 -4.95,5.5 -12.49,8.25 -22.64,8.25l-33.6 0 0 -80.91 31.17 0c15.21,0 22.8,7.03 22.8,21.11 0,4.22 -0.82,7.76 -2.48,10.61 -1.37,2.41 -3.5,4.45 -6.37,6.15 6.39,1.35 10.75,3.94 13.1,7.77 2.1,3.52 3.15,7.62 3.15,12.27zm-26.93 -33.99c0,-3.68 -1.64,-6.12 -4.93,-7.31 -1.17,-0.39 -2.75,-0.59 -4.71,-0.59l-3.82 0 0 15.89 3.82 0c3.6,0 6.19,-0.89 7.77,-2.67 1.25,-1.43 1.88,-3.19 1.88,-5.32zm5.95 32.61c0,-4.69 -2.41,-7.44 -7.24,-8.25 -1.52,-0.25 -4.14,-0.36 -7.88,-0.36l-4.29 0 0 16.98 4.65 0c5.34,0 9.06,-0.63 11.18,-1.88 2.39,-1.41 3.58,-3.58 3.58,-6.49z"/>
    <polygon id="_3" class="fil3" points="496.35,83.37 450.13,83.37 450.13,2.46 471.12,2.46 471.12,65.9 496.35,65.9 "/>
    <polygon id="_4" class="fil3" points="528.15,83.37 507.16,83.37 507.16,2.46 528.15,2.46 "/>
    <polygon id="_5" class="fil3" points="642.85,83.37 621.86,83.37 615.9,36.78 596.37,83.37 588.03,83.37 569.39,36.78 562.54,83.37 541.56,83.37 555.27,2.46 576.13,2.46 592.46,45.64 609.73,2.46 630.71,2.46 "/>
    <path id="_6" class="fil3" d="M733.02 83.37l-22.44 0 -5.22 -14.07 -29.01 0 -5.56 14.07 -22.2 0 31.08 -80.91 22.93 0 30.42 80.91zm-33.23 -30.08l-8.8 -25.84 -8.92 25.84 17.71 0z"/>
    <polygon id="_7" class="fil3" points="852.25,2.46 817.78,83.37 801.44,83.37 767.46,2.46 790.32,2.46 809.79,51.64 829.45,2.46 "/>
    <polygon id="_8" class="fil3" points="906.73,83.37 860.76,83.37 860.76,2.46 906.73,2.46 906.73,19.93 881.74,19.93 881.74,33.88 905.4,33.88 905.4,51.34 881.74,51.34 881.74,65.9 906.73,65.9 "/>
    <path id="_9" class="fil3" d="M978.34 81.47c-6.87,2.73 -13.24,4.08 -19.09,4.08 -10.19,0 -19.31,-3.25 -27.37,-9.79 -10.27,-8.33 -15.41,-19.18 -15.41,-32.59 0,-13.42 5.14,-24.3 15.41,-32.63 8.06,-6.53 17.24,-9.78 27.55,-9.78 5.6,0 11.91,1.35 18.91,4.08l0 25.15c-1.98,-2.42 -3.98,-4.24 -6.04,-5.46 -3.76,-2.26 -7.78,-3.39 -12.11,-3.39 -5.44,0 -10.19,1.64 -14.24,4.93 -5.09,4.16 -7.64,9.86 -7.64,17.1 0,7.22 2.55,12.9 7.64,17.07 4.05,3.3 8.8,4.93 14.24,4.93 4.33,0 8.35,-1.13 12.11,-3.4 2.02,-1.17 4.02,-3.01 6.04,-5.46l0 25.15z"/>
    <polygon id="_10" class="fil3" points="1039.58,19.93 1022.11,19.93 1022.11,83.37 1001.13,83.37 1001.13,19.93 984.02,19.93 984.02,2.46 1039.58,2.46 "/>
    <path id="_11" class="fil3" d="M1134.69 43.17c0,11 -3.66,20.65 -10.96,28.93 -8.33,9.44 -19.61,14.17 -33.82,14.17 -14.19,0 -25.45,-4.73 -33.78,-14.17 -7.3,-8.29 -10.96,-17.93 -10.96,-28.93 0,-5.01 0.99,-10.15 2.97,-15.42 1.96,-5.28 4.61,-9.81 7.93,-13.55 8.33,-9.44 19.61,-14.17 33.84,-14.17 14.21,0 25.49,4.73 33.82,14.17 7.3,8.29 10.96,17.95 10.96,28.97zm-21.83 0c0,-5.7 -1.82,-10.63 -5.46,-14.79 -4.67,-5.32 -10.49,-7.97 -17.49,-7.97 -4.83,0 -9.2,1.35 -13.12,4.06 -3.89,2.73 -6.69,6.35 -8.36,10.86 -0.95,2.59 -1.42,5.2 -1.42,7.84 0,5.48 1.82,10.37 5.46,14.7 4.5,5.36 10.31,8.03 17.44,8.03 7.12,0 12.94,-2.65 17.49,-7.97 3.64,-4.24 5.46,-9.16 5.46,-14.76z"/>
    <path id="_12" class="fil3" d="M1215.1 83.37l-26.08 0 -20.01 -30.93 0 30.93 -20.98 0 0 -80.91 32.67 0c9.57,0 16.62,2.87 21.21,8.61 3.7,4.63 5.56,10.07 5.56,16.32 0,7.18 -2.12,12.9 -6.39,17.16 -2.73,2.73 -6.49,4.63 -11.26,5.7l25.29 33.12zm-29.48 -54.81c0,-2.89 -1.05,-5.32 -3.15,-7.3 -1.96,-1.86 -5.16,-2.79 -9.54,-2.79l-3.92 0 0 20.26 3.92 0c4.42,0 7.62,-0.93 9.54,-2.79 2.1,-2.02 3.15,-4.49 3.15,-7.38z"/>
    <path class="fil3" d="M243.17 106.67l14.41 46.32 -11.66 0 -2.86 -9.58 -14.93 0 -2.93 9.58 -9.5 0 14.83 -46.32 12.64 0zm-12.44 28.2l9.79 0 -4.85 -16.23 -4.94 16.23z"/>
    <path id="_1_42" class="fil3" d="M286.19 134.72l0 18.26 -10.9 0 0 -46.32 20.36 0c3.75,0 6.77,0.44 9.04,1.31 2.28,0.88 4.16,2.48 5.66,4.81 1.5,2.34 2.24,4.94 2.24,7.8 0,5.58 -2.69,9.58 -8.05,12.01l8.54 20.38 -11.95 0 -7.13 -18.26 -7.79 0zm0 -19.72l0 11.81 6.67 0c2.18,0 3.76,-0.15 4.75,-0.47 1,-0.3 1.86,-0.98 2.64,-2.02 0.78,-1.05 1.16,-2.26 1.16,-3.63 0,-1.29 -0.38,-2.44 -1.16,-3.46 -0.78,-1.01 -1.61,-1.65 -2.51,-1.88 -0.92,-0.24 -2.62,-0.36 -5.11,-0.36l-6.44 0z"/>
    <path id="_2_43" class="fil3" d="M369.74 162.06c-1.31,0.29 -2.6,0.44 -3.87,0.44 -4.14,0 -6.92,-0.88 -8.33,-2.65 -1.4,-1.77 -2.21,-4 -2.44,-6.68 -1.75,0.2 -3.21,0.3 -4.39,0.3 -5.87,0 -10.55,-2.29 -14.04,-6.86 -3.51,-4.58 -5.26,-10.18 -5.26,-16.81 0,-6.46 1.69,-12.05 5.06,-16.76 3.38,-4.71 8.34,-7.07 14.91,-7.07 6.47,0 11.41,2.35 14.8,7.03 3.39,4.69 5.09,10.33 5.09,16.9 0,5.29 -0.96,9.69 -2.89,13.21 -1.93,3.52 -4.21,6.03 -6.83,7.55 0,2.33 1.36,3.51 4.09,3.51 0.78,0 2.16,-0.12 4.1,-0.34l0 8.23zm-18.41 -47.27c-5.68,0 -8.53,5 -8.53,15 0,10.05 2.84,15.07 8.5,15.07 5.73,0 8.59,-4.95 8.59,-14.86 0,-10.14 -2.85,-15.21 -8.55,-15.21z"/>
    <path id="_3_44" class="fil3" d="M427.49 106.67l0 28.83c0,4.66 -0.53,8.12 -1.6,10.39 -1.05,2.28 -3.02,4.14 -5.88,5.6 -2.86,1.46 -6.5,2.19 -10.96,2.19 -4.45,0 -8,-0.66 -10.62,-1.97 -2.64,-1.3 -4.61,-3.17 -5.91,-5.6 -1.31,-2.42 -1.97,-5.95 -1.97,-10.61l0 -28.83 11.74 0 0 28.86c0,2.49 0.21,4.33 0.62,5.49 0.42,1.18 1.27,2.12 2.51,2.82 1.25,0.68 2.8,1.03 4.63,1.03 2.04,0 3.69,-0.34 4.96,-1.02 1.28,-0.68 2.13,-1.57 2.55,-2.7 0.42,-1.12 0.63,-3 0.63,-5.62l0 -28.86 9.31 0z"/>
    <polygon id="_4_45" class="fil3" points="459.68,106.67 459.68,152.99 448.85,152.99 448.85,106.67 "/>
    <polygon id="_5_46" class="fil3" points="516.03,106.67 502.08,152.99 490.41,152.99 476.52,106.67 488.06,106.67 497.32,139.79 507.01,106.67 "/>
    <path id="_6_47" class="fil3" d="M549.41 153.68c-6.23,0 -11.06,-2.34 -14.47,-7.01 -3.41,-4.69 -5.12,-10.35 -5.12,-16.99 0,-6.76 1.73,-12.4 5.19,-16.92 3.46,-4.52 8.38,-6.78 14.78,-6.78 6.46,0 11.33,2.4 14.62,7.23 3.29,4.83 4.93,10.36 4.93,16.58 0,6.72 -1.69,12.38 -5.08,16.98 -3.39,4.62 -8.33,6.92 -14.85,6.92zm0.31 -38.89c-5.67,0 -8.51,5 -8.51,15.01 0,10.04 2.84,15.06 8.51,15.06 5.49,0 8.23,-5.01 8.23,-15.02 0,-10.04 -2.74,-15.04 -8.23,-15.04z"/>
    <path id="_7_48" class="fil3" d="M621.17 116.85l-9.24 3.08c-1.25,-3.65 -3.89,-5.48 -7.92,-5.48 -4.31,0 -6.46,1.39 -6.46,4.16 0,1.11 0.4,2.05 1.2,2.82 0.81,0.76 2.61,1.43 5.45,2.03 4.72,0.97 8.18,1.94 10.38,2.91 2.2,0.96 4.05,2.53 5.57,4.69 1.5,2.15 2.26,4.56 2.26,7.22 0,4.18 -1.61,7.79 -4.84,10.84 -3.23,3.04 -8.01,4.57 -14.34,4.57 -4.76,0 -8.8,-1.08 -12.14,-3.24 -3.34,-2.16 -5.53,-5.37 -6.6,-9.63l10.07 -2.27c1.13,4.31 4.27,6.46 9.42,6.46 2.49,0 4.34,-0.48 5.56,-1.44 1.22,-0.96 1.83,-2.1 1.83,-3.43 0,-1.37 -0.55,-2.41 -1.67,-3.16 -1.1,-0.74 -3.24,-1.43 -6.4,-2.09 -5.9,-1.21 -10.1,-2.87 -12.62,-4.99 -2.51,-2.1 -3.76,-5.19 -3.76,-9.27 0,-4.11 1.5,-7.58 4.49,-10.4 3,-2.82 7.07,-4.23 12.2,-4.23 9.09,0 14.94,3.62 17.55,10.88z"/>
    <polygon id="_8_49" class="fil3" points="693.91,106.67 679.96,152.99 668.29,152.99 654.4,106.67 665.94,106.67 675.2,139.79 684.89,106.67 "/>
    <polygon id="_9_50" class="fil3" points="743.89,115.49 721.88,115.49 721.88,125 739.18,125 739.18,133.68 721.88,133.68 721.88,143.82 743.89,143.82 743.89,152.99 710.84,152.99 710.84,106.67 743.89,106.67 "/>
    <polygon id="_10_51" class="fil3" points="792.43,106.67 792.43,115.83 780.97,115.83 780.97,152.99 770,152.99 770,115.83 758.47,115.83 758.47,106.67 "/>
    <path id="_11_52" class="fil3" d="M827.18 153.68c-6.23,0 -11.06,-2.34 -14.47,-7.01 -3.41,-4.69 -5.12,-10.35 -5.12,-16.99 0,-6.76 1.73,-12.4 5.19,-16.92 3.46,-4.52 8.38,-6.78 14.78,-6.78 6.46,0 11.33,2.4 14.62,7.23 3.29,4.83 4.93,10.36 4.93,16.58 0,6.72 -1.69,12.38 -5.08,16.98 -3.39,4.62 -8.33,6.92 -14.85,6.92zm0.31 -38.89c-5.67,0 -8.51,5 -8.51,15.01 0,10.04 2.84,15.06 8.51,15.06 5.49,0 8.23,-5.01 8.23,-15.02 0,-10.04 -2.74,-15.04 -8.23,-15.04z"/>
    <path id="_12_53" class="fil3" d="M877.82 134.72l0 18.26 -10.9 0 0 -46.32 20.36 0c3.75,0 6.77,0.44 9.04,1.31 2.28,0.88 4.16,2.48 5.66,4.81 1.5,2.34 2.24,4.94 2.24,7.8 0,5.58 -2.69,9.58 -8.05,12.01l8.54 20.38 -11.95 0 -7.13 -18.26 -7.79 0zm0 -19.72l0 11.81 6.67 0c2.18,0 3.76,-0.15 4.75,-0.47 1,-0.3 1.86,-0.98 2.64,-2.02 0.78,-1.05 1.16,-2.26 1.16,-3.63 0,-1.29 -0.38,-2.44 -1.16,-3.46 -0.78,-1.01 -1.61,-1.65 -2.51,-1.88 -0.92,-0.24 -2.62,-0.36 -5.11,-0.36l-6.44 0z"/>
    <polygon id="_13" class="fil3" points="936.11,106.67 936.11,152.99 925.28,152.99 925.28,106.67 "/>
    <polygon id="_14" class="fil3" points="991.43,114.64 968.05,144.17 992.19,144.17 992.19,152.99 954.83,152.99 954.83,145.15 978.19,115.42 956.36,115.42 956.36,106.67 991.43,106.67 "/>
    <path id="_15" class="fil3" d="M1033.77 106.67l14.41 46.32 -11.65 0 -2.86 -9.58 -14.93 0 -2.93 9.58 -9.5 0 14.83 -46.32 12.64 0zm-12.44 28.2l9.79 0 -4.85 -16.23 -4.94 16.23z"/>
    <path id="_16" class="fil3" d="M1065.88 106.67l14.12 0c5.75,0 10.04,0.8 12.86,2.4 2.82,1.59 5.35,4.11 7.58,7.57 2.23,3.45 3.36,7.8 3.36,13.08 0,6.62 -1.96,12.17 -5.86,16.61 -3.9,4.44 -9.28,6.67 -16.14,6.67l-15.91 0 0 -46.32zm10.62 8.55l0 29.09 4.45 0c3.95,0 6.87,-1.48 8.79,-4.43 1.91,-2.95 2.87,-6.43 2.87,-10.41 0,-2.8 -0.54,-5.4 -1.64,-7.78 -1.09,-2.39 -2.44,-4.07 -4.06,-5.02 -1.62,-0.96 -3.58,-1.45 -5.85,-1.45l-4.56 0z"/>
    <path id="_17" class="fil3" d="M1140.99 153.68c-6.23,0 -11.06,-2.34 -14.47,-7.01 -3.41,-4.69 -5.12,-10.35 -5.12,-16.99 0,-6.76 1.73,-12.4 5.19,-16.92 3.46,-4.52 8.38,-6.78 14.78,-6.78 6.46,0 11.33,2.4 14.62,7.23 3.29,4.83 4.93,10.36 4.93,16.58 0,6.72 -1.69,12.38 -5.08,16.98 -3.39,4.62 -8.33,6.92 -14.85,6.92zm0.31 -38.89c-5.67,0 -8.51,5 -8.51,15.01 0,10.04 2.84,15.06 8.51,15.06 5.49,0 8.23,-5.01 8.23,-15.02 0,-10.04 -2.74,-15.04 -8.23,-15.04z"/>
    <path id="_18" class="fil3" d="M1212.74 116.85l-9.24 3.08c-1.25,-3.65 -3.89,-5.48 -7.92,-5.48 -4.31,0 -6.46,1.39 -6.46,4.16 0,1.11 0.4,2.05 1.2,2.82 0.81,0.76 2.61,1.43 5.45,2.03 4.72,0.97 8.18,1.94 10.38,2.91 2.2,0.96 4.05,2.53 5.57,4.69 1.5,2.15 2.26,4.56 2.26,7.22 0,4.18 -1.61,7.79 -4.84,10.84 -3.23,3.04 -8.01,4.57 -14.34,4.57 -4.76,0 -8.8,-1.08 -12.14,-3.24 -3.34,-2.16 -5.53,-5.37 -6.6,-9.63l10.07 -2.27c1.13,4.31 4.27,6.46 9.42,6.46 2.49,0 4.34,-0.48 5.56,-1.44 1.22,-0.96 1.83,-2.1 1.83,-3.43 0,-1.37 -0.55,-2.41 -1.67,-3.16 -1.1,-0.74 -3.24,-1.43 -6.4,-2.09 -5.9,-1.21 -10.1,-2.87 -12.62,-4.99 -2.51,-2.1 -3.76,-5.19 -3.76,-9.27 0,-4.11 1.5,-7.58 4.49,-10.4 3,-2.82 7.07,-4.23 12.2,-4.23 9.09,0 14.94,3.62 17.55,10.88z"/>
   </g>
  </g>
 </g>
</svg>
